<svg width="4" height="14" viewBox="0 0 4 14" fill="none" xmlns="http://www.w3.org/2000/svg">
<path id="icon" fill-rule="evenodd" clip-rule="evenodd" d="M3.33268 12.3346C3.33268 11.5983 2.73573 11.0013 1.99935 11.0013C1.26297 11.0013 0.666016 11.5983 0.666016 12.3346C0.666016 13.071 1.26297 13.668 1.99935 13.668C2.73573 13.668 3.33268 13.071 3.33268 12.3346ZM1.99935 5.66797C2.73573 5.66797 3.33268 6.26492 3.33268 7.0013C3.33268 7.73768 2.73573 8.33464 1.99935 8.33464C1.26297 8.33464 0.666016 7.73768 0.666016 7.0013C0.666016 6.26492 1.26297 5.66797 1.99935 5.66797ZM1.99935 0.334635C2.73573 0.334635 3.33268 0.931588 3.33268 1.66797C3.33268 2.40435 2.73573 3.0013 1.99935 3.0013C1.26297 3.0013 0.666016 2.40435 0.666016 1.66797C0.666016 0.931588 1.26297 0.334635 1.99935 0.334635Z" fill="black"/>
</svg>
